<?xml version="1.0" encoding="UTF-8"?>
<svg width="282px" height="509px" viewBox="0 0 282 509" version="1.1" xmlns="http://www.w3.org/2000/svg" xmlns:xlink="http://www.w3.org/1999/xlink">
    <!-- Generator: Sketch 61 (89581) - https://sketch.com -->
    <title>Blob</title>
    <desc>Created with Sketch.</desc>
    <g id="Landing-Page---Workpal" stroke="none" stroke-width="1" fill="none" fill-rule="evenodd">
        <g id="Landing" transform="translate(0.000000, -610.000000)" fill="#2026A2">
            <path d="M14.8593293,633 L78.2343679,633 C135.891006,633 161.378211,639.904124 185.619721,652.868625 C209.86123,665.833126 228.886109,684.858004 241.85061,709.099514 C254.815111,733.341023 261.719235,758.828228 261.719235,816.484867 L261.719235,950.428253 C261.719235,996.654905 224.245129,1034.12901 178.018477,1034.12901 C169.854347,1034.12901 161.734138,1032.93456 153.915826,1030.5836 L100.483173,1014.51644 C77.4303985,1007.58449 69.3689226,1005.92273 60.0901472,1005.07562 C50.8113718,1004.22851 42.1971561,1004.76193 33.0937753,1006.7473 C23.9903944,1008.73268 16.195518,1011.3763 -5.82593699,1021.09936 L-61.9437916,1045.87689 C-100.671908,1062.97639 -145.92913,1045.44293 -163.028627,1006.71481 C-167.37419,996.872682 -169.599254,986.226015 -169.559095,975.467307 L-168.964369,816.138819 C-168.748487,758.303496 -161.787199,732.944022 -148.790542,708.784788 C-135.793884,684.625554 -116.776834,665.679357 -92.5692562,652.772968 C-68.3616778,639.86658 -42.9763963,633 14.8593293,633 Z" id="Blob" transform="translate(45.859617, 863.293295) rotate(-49.000000) translate(-45.859617, -863.293295) "></path>
        </g>
    </g>
</svg>