<?xml version="1.0" encoding="UTF-8"?>
<svg width="45px" height="45px" viewBox="0 0 45 45" version="1.1" xmlns="http://www.w3.org/2000/svg" xmlns:xlink="http://www.w3.org/1999/xlink">
    <!-- Generator: Sketch 61 (89581) - https://sketch.com -->
    <title>email</title>
    <desc>Created with Sketch.</desc>
    <g id="Landing-Page---Workpal-v3-White" stroke="none" stroke-width="1" fill="none" fill-rule="evenodd">
        <g id="Landing" transform="translate(-1482.000000, -1017.000000)">
            <g id="Footer" transform="translate(0.000000, 960.000000)">
                <g fill="#000000" id="Group-2" stroke="#979797">
                    <g>
                        <rect id="Rectangle" x="0.5" y="0.5" width="1927" height="157"></rect>
                    </g>
                </g>
                <g id="email" transform="translate(1482.000000, 57.000000)" fill="#FFFFFF" fill-rule="nonzero">
                    <path d="M22.4994,0 C10.07355,0 0.00015,10.0737 0.00015,22.49955 C0.00015,34.9251 10.07355,44.99955 22.4994,44.99955 C34.92525,44.99955 44.9994,34.9251 44.9994,22.49955 C44.9994,10.0737 34.92525,0 22.4994,0 Z M22.49985,7.9029 L35.8143,16.2054 L9.1854,16.2054 L22.49985,7.9029 Z M35.9802,29.46345 L35.97885,29.46345 C35.97885,30.79515 34.8996,31.87425 33.56805,31.87425 L11.43165,31.87425 C10.09995,31.87425 9.02085,30.795 9.02085,29.46345 L9.02085,16.7337 C9.02085,16.59285 9.03525,16.4559 9.05865,16.32135 L21.77985,24.2538 C21.79545,24.26355 21.8121,24.27015 21.82815,24.27915 C21.84495,24.28845 21.86205,24.29745 21.87915,24.306 C21.969,24.35235 22.06155,24.3897 22.1562,24.41415 C22.16595,24.41685 22.1757,24.41805 22.18545,24.4203 C22.28925,24.44475 22.3944,24.46005 22.4994,24.46005 L22.50015,24.46005 C22.5009,24.46005 22.50165,24.46005 22.50165,24.46005 C22.60665,24.46005 22.7118,24.4452 22.8156,24.4203 C22.82535,24.4179 22.8351,24.41685 22.84485,24.41415 C22.93935,24.3897 23.0316,24.35235 23.1219,24.306 C23.139,24.29745 23.1561,24.28845 23.1729,24.27915 C23.1888,24.27015 23.2056,24.26355 23.2212,24.2538 L35.9424,16.32135 C35.9658,16.4559 35.9802,16.59255 35.9802,16.7337 L35.9802,29.46345 Z" id="Shape"></path>
                </g>
            </g>
        </g>
    </g>
</svg>