<?xml version="1.0" encoding="UTF-8"?>
<svg width="45px" height="45px" viewBox="0 0 45 45" version="1.1" xmlns="http://www.w3.org/2000/svg" xmlns:xlink="http://www.w3.org/1999/xlink">
    <!-- Generator: Sketch 61 (89581) - https://sketch.com -->
    <title>linkedin</title>
    <desc>Created with Sketch.</desc>
    <g id="Landing-Page---Workpal-v3-White" stroke="none" stroke-width="1" fill="none" fill-rule="evenodd">
        <g id="Landing" transform="translate(-1569.000000, -1017.000000)">
            <g id="Footer" transform="translate(0.000000, 960.000000)">
                <g fill="#000000" id="Group-2" stroke="#979797">
                    <g>
                        <rect id="Rectangle" x="0.5" y="0.5" width="1927" height="157"></rect>
                    </g>
                </g>
                <g id="linkedin" transform="translate(1564.000000, 52.000000)" fill="#FFFFFF" fill-rule="nonzero">
                    <path d="M27.3506494,5.61038961 C15.345671,5.61038961 5.61038961,15.345671 5.61038961,27.3506494 C5.61038961,39.3556277 15.345671,49.0909091 27.3506494,49.0909091 C39.3556277,49.0909091 49.0909091,39.3556277 49.0909091,27.3506494 C49.0909091,15.345671 39.3556277,5.61038961 27.3506494,5.61038961 Z M21.0331825,38.4755479 L15.7384394,38.4755479 L15.7384394,22.5462032 L21.0331825,22.5462032 L21.0331825,38.4755479 Z M18.3859768,20.3710494 L18.3514769,20.3710494 C16.5747308,20.3710494 15.425618,19.1479607 15.425618,17.6193487 C15.425618,16.0562367 16.6098942,14.8669846 18.4211402,14.8669846 C20.2323862,14.8669846 21.3469992,16.0562367 21.3814991,17.6193487 C21.3814991,19.1479607 20.2323862,20.3710494 18.3859768,20.3710494 Z M40.1249096,38.4755479 L34.8308299,38.4755479 L34.8308299,29.953735 C34.8308299,27.8120859 34.0642019,26.3514785 32.1484609,26.3514785 C30.6858632,26.3514785 29.8147401,27.3367167 29.4319236,28.2877867 C29.2919335,28.6281417 29.2577653,29.1038426 29.2577653,29.5798752 L29.2577653,38.4755479 L23.9633539,38.4755479 C23.9633539,38.4755479 24.0326856,24.0406471 23.9633539,22.5462032 L29.2577653,22.5462032 L29.2577653,24.8016357 C29.9613648,23.7162151 31.2202802,22.1723435 34.0293702,22.1723435 C37.5128673,22.1723435 40.1249096,24.4490067 40.1249096,29.341693 L40.1249096,38.4755479 Z" id="Shape"></path>
                </g>
            </g>
        </g>
    </g>
</svg>