<?xml version="1.0" encoding="UTF-8"?>
<svg width="665px" height="592px" viewBox="0 0 665 592" version="1.1" xmlns="http://www.w3.org/2000/svg" xmlns:xlink="http://www.w3.org/1999/xlink">
    <!-- Generator: Sketch 61 (89581) - https://sketch.com -->
    <title>Hero Image</title>
    <desc>Created with Sketch.</desc>
    <defs>
        <rect id="path-1" x="0" y="0" width="1920" height="964"></rect>
        <filter x="-0.4%" y="-0.5%" width="100.7%" height="101.5%" filterUnits="objectBoundingBox" id="filter-3">
            <feOffset dx="0" dy="2" in="SourceAlpha" result="shadowOffsetOuter1"></feOffset>
            <feGaussianBlur stdDeviation="2" in="shadowOffsetOuter1" result="shadowBlurOuter1"></feGaussianBlur>
            <feColorMatrix values="0 0 0 0 0   0 0 0 0 0   0 0 0 0 0  0 0 0 0.5 0" type="matrix" in="shadowBlurOuter1"></feColorMatrix>
        </filter>
    </defs>
    <g id="Landing-Page---Workpal-v3-White" stroke="none" stroke-width="1" fill="none" fill-rule="evenodd">
        <g id="Landing" transform="translate(-1054.000000, -172.000000)">
            <g id="Mockups" transform="translate(0.000000, -4.000000)">
                <mask id="mask-2" fill="white">
                    <use xlink:href="#path-1"></use>
                </mask>
                <g id="Mask">
                    <use fill="black" fill-opacity="1" filter="url(#filter-3)" xlink:href="#path-1"></use>
                    <use fill="#FFFFFF" fill-rule="evenodd" xlink:href="#path-1"></use>
                </g>
            </g>
            <g id="Hero-Image" transform="translate(1054.000000, 172.000000)">
                <rect id="Rectangle" fill="#2848FC" opacity="0.1" x="0.97166362" y="243.616" width="104.560101" height="31.616" rx="5.944"></rect>
                <rect id="Rectangle" fill="#2848FC" opacity="0.1" x="110.394653" y="275.24" width="104.560101" height="31.616" rx="5.944"></rect>
                <rect id="Rectangle" fill="#2848FC" opacity="0.1" x="219.82564" y="306.856" width="104.560101" height="31.616" rx="5.944"></rect>
                <rect id="Rectangle" fill="#2848FC" opacity="0.1" x="0.97166362" y="196.192" width="104.560101" height="31.616" rx="5.944"></rect>
                <rect id="Rectangle" fill="#2848FC" opacity="0.1" x="110.394653" y="227.808" width="104.560101" height="31.616" rx="5.944"></rect>
                <rect id="Rectangle" fill="#2848FC" opacity="0.1" x="219.82564" y="259.432" width="104.560101" height="31.616" rx="5.944"></rect>
                <rect id="Rectangle" fill="#2848FC" opacity="0.1" x="341.40585" y="243.616" width="104.560101" height="31.616" rx="5.944"></rect>
                <rect id="Rectangle" fill="#2848FC" opacity="0.1" x="450.828839" y="275.24" width="104.560101" height="31.616" rx="5.944"></rect>
                <rect id="Rectangle" fill="#2848FC" opacity="0.1" x="560.259826" y="306.856" width="104.560101" height="31.616" rx="5.944"></rect>
                <rect id="Rectangle" fill="#2848FC" opacity="0.1" x="341.40585" y="196.192" width="104.560101" height="31.616" rx="5.944"></rect>
                <rect id="Rectangle" fill="#2848FC" opacity="0.1" x="450.828839" y="227.808" width="104.560101" height="31.616" rx="5.944"></rect>
                <rect id="Rectangle" fill="#2848FC" opacity="0.1" x="560.259826" y="259.432" width="104.560101" height="31.616" rx="5.944"></rect>
                <rect id="Rectangle" fill="#2848FC" opacity="0.1" x="0.97166362" y="132.952" width="104.560101" height="31.616" rx="5.944"></rect>
                <rect id="Rectangle" fill="#2848FC" opacity="0.1" x="110.394653" y="164.568" width="104.560101" height="31.616" rx="5.944"></rect>
                <rect id="Rectangle" fill="#2848FC" opacity="0.1" x="219.82564" y="196.192" width="104.560101" height="31.616" rx="5.944"></rect>
                <rect id="Rectangle" fill="#2848FC" opacity="0.1" x="0.97166362" y="85.52" width="104.560101" height="31.616" rx="5.944"></rect>
                <rect id="Rectangle" fill="#2848FC" opacity="0.1" x="110.394653" y="117.144" width="104.560101" height="31.616" rx="5.944"></rect>
                <rect id="Rectangle" fill="#2848FC" opacity="0.1" x="219.82564" y="148.76" width="104.560101" height="31.616" rx="5.944"></rect>
                <rect id="Rectangle" fill="#2848FC" opacity="0.1" x="341.40585" y="132.952" width="104.560101" height="31.616" rx="5.944"></rect>
                <rect id="Rectangle" fill="#2848FC" opacity="0.1" x="450.828839" y="164.568" width="104.560101" height="31.616" rx="5.944"></rect>
                <rect id="Rectangle" fill="#2848FC" opacity="0.1" x="560.259826" y="196.192" width="104.560101" height="31.616" rx="5.944"></rect>
                <rect id="Rectangle" fill="#2848FC" opacity="0.1" x="341.40585" y="85.52" width="104.560101" height="31.616" rx="5.944"></rect>
                <rect id="Rectangle" fill="#2848FC" opacity="0.1" x="450.828839" y="117.144" width="104.560101" height="31.616" rx="5.944"></rect>
                <rect id="Rectangle" fill="#2848FC" opacity="0.1" x="560.259826" y="148.76" width="104.560101" height="31.616" rx="5.944"></rect>
                <polygon id="Path" fill="#3F3D56" points="68.9561243 256.8 32.1645338 482.4 198.526508 464.8 191.328154 445.6 61.3578611 456.4 91.7509141 256.4"></polygon>
                <polygon id="Path" fill="#3F3D56" points="25.7659963 0.8 249.714808 0 314.5 490.4 89.7513711 520.8"></polygon>
                <polygon id="Path" fill="#FFFFFF" points="50.1604205 19.6 230.919104 19.6 294.104662 475.6 107.747258 501.2"></polygon>
                <path d="M220.633455,455.088 C221.769196,457.264 222.617002,459.616 224.096664,461.576 C228.415676,467.352 236.613803,468.256 242.764397,472.024 C243.072144,472.18029 243.325751,472.425592 243.49223,472.728 C243.772166,473.392 243.148309,474.088 242.548446,474.504 C237.885512,477.776 231.76691,477.848 226.064214,477.808 C224.147731,477.876193 222.230564,477.693308 220.361517,477.264 C217.346207,476.464 214.762797,474.36 211.787477,473.504 C210.24469,473.118572 208.665749,472.896022 207.076554,472.84 L200.829982,472.416 C199.166962,472.391983 197.520029,472.086325 195.959095,471.512 C194.378152,470.90695 193.218436,469.532493 192.887797,467.872 C192.711837,466.544 193.279707,465.256 193.615631,463.96 C194.415448,460.888 194.167505,457.176 196.558958,455.08 C197.54439,454.325323 198.67407,453.780775 199.878199,453.48 C204.22527,452.014747 208.662941,450.833591 213.163163,449.944 C216.866316,449.216 218.99383,451.936 220.633455,455.088 Z" id="Path" fill="#3F3D56"></path>
                <path d="M149.977605,472.392 C150.137569,474.096 150.185558,476.048 148.953839,477.24 C148.186911,477.877045 147.26032,478.292032 146.274452,478.44 C140.363803,479.816 133.773309,479.912 128.630484,476.696 C128.095382,476.390298 127.623135,475.98581 127.238803,475.504 C126.809989,474.84764 126.566777,474.087429 126.534963,473.304 C126.351005,471.04 127.046846,468.808 127.678702,466.624 C129.173859,461.441831 130.309632,456.162619 131.077925,450.824 C131.14191,450.384 146.170475,453.224 147.170247,454.712 C148.42596,456.552 148.433958,460.968 148.769881,463.16 C149.276432,466.221333 149.679007,469.298667 149.977605,472.392 Z" id="Path" fill="#3F3D56"></path>
                <path d="M205.916819,264.216 L209.915905,301.408 C210.715722,309.008 211.55553,316.648 211.003656,324.272 C210.363803,333.072 207.900366,341.872 208.940128,350.592 C209.348035,353.984 210.275823,357.312 210.411792,360.728 C210.437154,362.999586 210.322295,365.270571 210.06787,367.528 C208.260283,390.096 213.978976,412.488 217.178245,434.896 C217.692721,437.659968 217.805861,440.483717 217.514168,443.28 C217.098263,446.12 216.266453,449.848 218.793876,451.192 L195.055302,459.8 C192.023995,456 194.031536,450.088 193.455667,445.264 C192.927788,440.92 190.544333,437.048 189.272623,432.864 C188.120887,429.104 187.880941,425.144 187.505027,421.24 C185.433501,399.984 179.074954,379.28 177.587294,357.976 C177.539491,355.918594 177.271354,353.87224 176.787477,351.872 C175.98766,349.224 174.388026,346.912 173.220293,344.424 C171.428702,340.688 170.548903,336.592 169.685101,332.544 L164.606261,308.744 C159.471435,316.392 159.679388,326.344 158.66362,335.512 C157.239945,348.312 154.056673,360.896 151.465265,373.536 C150.863229,376.255652 150.411976,379.006517 150.113574,381.776 C149.441728,389.192 150.777422,396.68 150.065585,404.088 C149.265768,412.672 145.658592,421.048 146.530393,429.632 C147.010283,434.384 148.833867,438.88 150.065585,443.488 C151.297303,448.096 151.905165,453.152 150.025594,457.544 C143.456402,455.131566 136.399528,454.351865 129.462294,455.272 C121.840037,447.472 120.488346,436.592 119.968464,425.672 C119.448583,414.752 120.704296,403.816 119.344607,393 C118.944698,389.8 118.320841,386.68 118.216865,383.488 C117.880941,373.256 122.799817,363.68 125.247258,353.736 C127.449759,344.784258 127.659997,335.457939 125.863117,326.416 C124.663391,320.44 122.599863,314.64 121.864031,308.584 C120.86426,300.096 122.559872,291.544 124.263483,283.16 C125.407221,277.504 126.542962,271.848 127.838665,266.224 C129.230347,260.184 130.885969,254.016 134.605119,249.072 C140.555759,241.16 151.121344,237.648 160.999086,238.416 C170.876828,239.184 180.09872,243.68 188.256856,249.28 C194.686654,253.578127 200.610817,258.588516 205.916819,264.216 Z" id="Path" fill="#192534"></path>
                <path d="M179.378885,121.8 C178.930313,122.520764 178.618501,123.318101 178.459095,124.152 C178.259141,125.792 179.258912,127.296 180.058729,128.728 C181.083465,130.567798 181.870896,132.530106 182.402194,134.568 C182.782908,135.829301 182.899977,137.155487 182.746115,138.464 C182.550943,139.446798 182.199925,140.392062 181.706353,141.264 C180.162706,144.24 177.875229,146.992 174.76394,148.232 C172.354493,149.119418 169.726915,149.225776 167.253656,148.536 C164.796971,147.840401 162.474527,146.737055 160.383227,145.272 C158.620585,144.154668 157.035333,142.77939 155.680302,141.192 C154.386549,139.456206 153.296952,137.577161 152.433044,135.592 C150.769424,132.112 149.08181,128.392 149.38574,124.576 C149.401603,124.229985 149.466226,123.887943 149.577697,123.56 C149.837417,122.967401 150.200305,122.425654 150.649452,121.96 C154.061842,117.915383 155.811394,112.725575 155.544333,107.44 L167.197669,110.088 C169.765082,110.672 172.332495,111.256 174.867916,111.984 C176.947441,112.584 180.146709,113.416 181.4984,115.272 C182.850091,117.128 180.298675,120.104 179.378885,121.8 Z" id="Path" fill="#FBBEBE"></path>
                <ellipse id="Oval" fill="#FBBEBE" cx="173.140311" cy="98.632" rx="21.179159" ry="21.184"></ellipse>
                <path d="M169.73309,141.368 C170.628885,139.408 172.564442,138.168 174.332038,136.936 C176.099634,135.704 177.891225,134.128 178.235146,131.992 C178.256269,131.508843 178.376033,131.035123 178.587066,130.6 C179.26691,129.576 180.882541,130.088 181.85032,130.84 C184.201782,132.672 185.801417,135.272 187.36106,137.808 C189.378702,140.891967 191.105721,144.156645 192.519881,147.56 C194.767367,153.488 195.039305,159.96 195.287249,166.288 C195.511197,172.048 195.727148,177.896 194.327468,183.48 C193.447669,187.016 191.928016,190.448 191.840037,194.088 C191.576097,207.312 186.985146,219.952 186.665219,233.176 C186.641214,236.999808 186.833477,240.821913 187.241088,244.624 L187.992916,253.208 C176.363574,252.541333 164.766225,251.52 153.200868,250.144 C152.864945,246.192 151.737203,242.36 150.705439,238.536 C146.480657,222.902303 143.772744,206.897586 142.619287,190.744 C142.003428,182.168 141.371572,173.624 140.41979,165.08 C139.563985,157.312 137.884369,149.496 138.892139,141.744 C139.419563,138.220449 140.527686,134.80881 142.171389,131.648 C142.690948,130.388758 143.58429,129.319295 144.730804,128.584 C145.303622,128.307131 145.911883,128.110612 146.538391,128 C148.351635,127.632588 150.192159,127.415849 152.041133,127.352 C152.49308,127.313929 152.948189,127.357283 153.384826,127.48 C154.164097,127.868564 154.803935,128.488985 155.216408,129.256 C158.779972,134.614771 163.82324,138.822624 169.73309,141.368 Z" id="Path" fill="#F2F2F2"></path>
                <path d="M159.911335,139.672 C161.398995,141.8 164.550274,142.304 165.92596,144.472 C166.389399,145.378116 166.741223,146.337122 166.97372,147.328 C167.813528,150.008 169.509141,152.336 170.540905,154.952 C172.028565,158.712 172.068556,162.872 172.084552,166.912 C172.230803,170.130028 171.983698,173.35388 171.34872,176.512 C170.86883,178.488 170.085009,180.368 169.509141,182.32 C168.531123,185.639511 168.167904,189.109862 168.437386,192.56 C168.437512,193.305306 168.636294,194.037103 169.013254,194.68 C169.555725,195.322479 170.263897,195.803924 171.060786,196.072 C173.40425,197.104 175.859689,198.16 178.419104,197.92 C178.944109,197.903457 179.452842,197.733841 179.88277,197.432 C180.179314,197.161744 180.423359,196.838989 180.602605,196.48 L182.202239,193.776 C183.649909,191.304 185.161563,188.536 184.601691,185.712 C184.195088,184.254392 183.583803,182.861851 182.786106,181.576 C181.763844,179.489089 180.892476,177.331558 180.178702,175.12 C177.627285,167.784 175.043876,160.344 174.468007,152.6 C174.129337,149.652854 174.45735,146.667255 175.427788,143.864 C176.179016,142.138732 177.123508,140.50428 178.243144,138.992 C177.724693,138.296101 176.829927,137.993531 175.995658,138.232 C175.191095,138.48065 174.411812,138.804756 173.66819,139.2 C171.316728,140.192 168.709324,139.832 166.333867,139.152 C165.406079,138.88 163.934415,137.952 162.974634,138.016 C162.646709,138.056 159.967322,139.768 159.911335,139.672 Z" id="Path" fill="#2848FC"></path>
                <path d="M178.635055,139.584 C178.155165,139.2 177.411335,138.848 176.987431,139.296 C176.845046,139.490229 176.741816,139.710321 176.683501,139.944 C176.267596,141.064 175.043876,141.616 173.93213,142.048 C172.820384,142.48 171.620658,142.72 170.948812,141.896 C170.513643,141.23762 170.555732,140.37298 171.052788,139.76 C171.54476,139.167142 172.137777,138.666077 172.804388,138.28 C176.483391,135.682589 178.989569,131.738483 179.778793,127.304 C180.810481,128.124174 181.493449,129.304635 181.690356,130.608 C181.954296,131.88 181.986289,133.192 182.250229,134.464 C182.642139,136.288 183.51394,137.992 183.713894,139.84 C183.81787,140.824 183.713894,141.816 183.713894,142.8 C183.749826,143.762061 183.862155,144.719744 184.049817,145.664 C182.178245,143.68 180.858547,141.352 178.635055,139.584 Z" id="Path" fill="#F2F2F2"></path>
                <path d="M162.446755,134.152 C161.646938,133.392 160.847121,132.672 160.047303,131.896 C156.537626,128.469595 153.887482,124.261839 152.313071,119.616 C151.289305,120.416 150.161563,121.472 150.137569,122.816 C150.228768,123.767028 150.595714,124.670701 151.193327,125.416 C154.217851,130.180218 156.214668,135.523538 157.055987,141.104 C157.934738,139.730913 159.465535,138.915312 161.095064,138.952 C162.358775,138.952 168.029479,142.312 168.437386,141.464 C169.037249,140.136 163.406536,135.056 162.446755,134.152 Z" id="Path" fill="#F2F2F2"></path>
                <path d="M180.306673,127.784 C187.830362,135.275351 197.04055,140.852656 207.164534,144.048 C208.170986,144.267518 209.104446,144.74124 209.875914,145.424 C210.452215,146.143971 210.839833,146.996376 211.003656,147.904 C212.95521,155.536 213.61106,163.432 214.258912,171.28 C214.428548,172.577959 214.401584,173.894081 214.178931,175.184 C213.707038,177.28 212.219378,178.976 210.755713,180.552 C206.164762,185.472 200.92596,190.616 200.150137,197.304 C200.090954,198.593322 199.938591,199.876672 199.694241,201.144 C199.294333,202.632 198.406536,203.944 197.86266,205.392 C195.191271,212.52 201.22989,221.152 197.550731,227.792 C199.54235,231.619277 200.908658,235.740744 201.597806,240 C201.721246,241.614693 202.090764,243.201019 202.693556,244.704 C203.789305,246.992 206.04479,248.448 207.820384,250.304 C213.235146,255.856 213.898995,264.352 214.218921,272.104 C214.418876,276.472 214.35489,281.488 211.019653,284.352 C209.092093,286.024 206.460695,286.568 203.941271,286.984 C200.590037,287.544 196.94287,287.944 193.975548,286.288 C191.848035,285.104 190.400366,283.032 189.016682,281.032 C186.393282,277.216 183.761883,273.408 181.274452,269.496 C177.339351,263.328 173.628199,256.28 174.76394,249.048 C174.444013,256.448 172.884369,263.904 169.253199,270.352 C165.622029,276.8 159.775366,282.184 152.680987,284.312 C145.586609,286.44 137.292505,284.936 132.005713,279.752 C130.279836,277.974781 128.797854,275.975935 127.59872,273.808 C124.589325,268.65323 122.393309,263.06479 121.088208,257.24 C120.744287,255.728 120.488346,254.04 121.248172,252.688 C121.60809,252.048 122.159963,251.544 122.535878,250.912 C123.799589,248.76 122.583867,246.048 121.360146,243.856 C119.496572,244.032 118.160878,241.84 118.328839,239.968 C118.496801,238.096 119.616545,236.472 120.408364,234.768 C122.727834,229.744 122.215951,223.896 121.096207,218.48 C119.976463,213.064 118.304845,207.68 118.432815,202.152 C118.568784,196.304 114.361746,191.04 111.154479,186.152 C109.362888,183.4 107.275366,180.84 105.715722,177.952 C102.464009,171.874514 101.712156,164.767595 103.620201,158.144 C104.740193,154.742851 106.209013,151.466741 108.003199,148.368 L110.642596,143.416 C111.639247,141.016316 113.717976,139.23414 116.241316,138.616 L134.501143,131.416 C136.835972,130.618314 139.052736,129.509679 141.091636,128.12 C143.323126,126.44 144.986746,124.12 147.11426,122.328 C147.740516,121.669968 148.605495,121.292175 149.513711,121.28 C151.22532,121.432 151.833181,123.592 152.009141,125.28 C152.409049,129.056 155.20841,132.256 156.160192,135.928 C161.311015,156.208 172.212523,174.912 175.203839,195.616 C178.563071,187.544 181.922303,179.456 186.22532,171.856 C186.904111,170.764909 187.474692,169.61009 187.928931,168.408 C188.445449,166.674067 188.637956,164.859747 188.496801,163.056 C188.28085,157.848 186.897166,152.76 185.529479,147.728 C183.753885,140.88 182.15425,134.568 180.306673,127.784 Z" id="Path" fill="#3F3D56"></path>
                <path d="M215.106718,189.752 C215.458638,193.16 215.802559,196.576 216.434415,199.944 C217.170247,203.84 218.289991,207.648 219.401737,211.456 C219.944671,213.596537 220.722554,215.67047 221.721207,217.64 C222.083254,218.211752 222.370847,218.827395 222.577011,219.472 C222.968921,221.072 222.073126,222.672 221.689214,224.272 C220.537477,229.072 223.992687,234.408 221.817185,238.832 C221.161335,240.176 220.017596,241.288 219.585695,242.728 C219.08181,244.384 219.585695,246.152 219.849634,247.864 C220.529479,252.664 218.889854,257.544 217.274223,262.16 L214.522852,269.952 C212.011426,265.28 209.476005,260.56 206.004799,256.552 C204.765082,255.112 203.413391,253.776 202.269653,252.256 C200.564267,249.86738 199.217005,247.242313 198.270567,244.464 C195.828793,237.862729 194.433602,230.920273 194.135512,223.888 C193.937021,221.88875 194.168832,219.870165 194.815356,217.968 C195.344694,216.867803 195.93756,215.799332 196.590951,214.768 C198.734461,210.904 199.17436,206.328 199.134369,201.912 C199.094378,197.496 198.622486,193.064 199.134369,188.672 C199.552043,185.004942 200.63628,181.445119 202.333638,178.168 C203.334858,176.045869 204.822899,174.19019 206.676645,172.752 C208.060072,171.716041 209.747546,171.167486 211.475548,171.191213 C214.090951,171.344 213.491088,173.592 213.715037,175.76 L215.106718,189.752 Z" id="Path" fill="#3F3D56"></path>
                <path d="M97.4616088,178.864 C95.8299817,183.664 94.3583181,188.506667 93.0466179,193.392 C91.7669104,198.192 90.6231718,203.018667 89.6154022,207.872 C89.0977557,210.005951 88.808197,212.188864 88.7515996,214.384 C88.8539311,216.939692 89.292266,219.470781 90.0553016,221.912 C95.2061243,240.48 104.595978,257.608 115.169561,273.712 C118.190959,269.94298 121.779643,266.666545 125.80713,264 C126.136699,263.804781 126.411773,263.529644 126.606947,263.2 C126.812265,262.569679 126.717977,261.880041 126.351005,261.328 C123.431673,255.344 118.808729,250.072 117.353062,243.568 C116.745201,240.864 116.721207,238.048 116.033364,235.36 C115.145567,231.88 113.16202,228.696 112.706124,225.128 C112.218236,221.24 113.505941,217 111.682358,213.552 C115.401508,212.104 117.553016,208.272 119.128656,204.6 C120.812232,200.843348 122.016098,196.889571 122.711837,192.832 C123.807029,185.053067 122.284822,177.130715 118.384826,170.312 C116.479948,166.910619 114.035332,163.841316 111.146481,161.224 C110.194698,160.368 107.947212,157.912 106.563528,157.935825 C104.715951,157.976 104.124086,160.968 103.596207,162.312 C101.460695,167.8 99.3491773,173.296 97.4616088,178.864 Z" id="Path" fill="#3F3D56"></path>
                <path d="M130.590037,268.408 C130.829982,268.584 131.10192,268.824 131.037934,269.112 C130.973949,269.4 130.742002,269.472 130.534049,269.592 C129.452794,270.359245 128.645559,271.452626 128.230576,272.712 C126.901464,275.708211 125.742551,278.777095 124.759369,281.904 C122.96954,279.221827 120.864292,276.764247 118.488803,274.584 C116.665219,272.904 114.625686,271.312 113.649909,269.04 C113.649909,268.976 117.840951,265.88 118.224863,265.544 C119.400594,264.496 120.880256,261.592 122.095978,260.952 C123.471664,260.232 124.783364,263.056 125.831124,264.192 C127.272508,265.75295 128.866792,267.165353 130.590037,268.408 Z" id="Path" fill="#FBBEBE"></path>
                <path d="M195.63117,95.32 C195.575183,94.272 195.439214,93.112 194.639397,92.432 C193.937381,91.9462363 193.091752,91.7122255 192.239945,91.768 C187.577011,91.616 182.754113,92.4 178.355119,90.832 C175.459781,89.8 172.988346,87.816 170.164991,86.584 C167.341636,85.352 163.726463,85.024 161.446984,87.096 C159.719378,88.696 159.247486,91.152 158.647623,93.416 C157.326925,98.412855 154.975762,103.078106 151.745201,107.112 C149.577697,106.44 148.026051,104.504 147.02628,102.472 C143.627057,95.544 145.298675,87.272 147.714122,79.928 C148.51394,77.464 149.401737,75.024 150.289534,72.592 L152.241088,67.216 C154.802527,66.9643866 157.182191,65.7799771 158.927559,63.888 L159.767367,65.928 C161.93631,65.8499592 164.029491,65.1101993 165.765996,63.808 C166.437843,65.072 168.165448,65.408 169.565128,65 C170.964808,64.592 172.172532,63.808 173.564214,63.4 C177.283364,62.2 181.250457,64.048 185.153565,64.256 C186.805241,64.2157827 188.457885,64.2638512 190.104433,64.4 C194.71138,65.144 197.966636,69.48 199.374314,73.928 C200.310101,76.888 201.085923,80.528 204.005256,81.576 C204.069241,82.696 202.085695,82.912 201.917733,83.976 C201.89797,84.3307349 201.981307,84.6836066 202.157678,84.992 L204.837066,90.744 C203.556232,91.0656157 202.208691,90.9987802 200.965951,90.552 C199.758227,93.392 195.751143,97.488 195.63117,95.32 Z" id="Path" fill="#192534"></path>
                <path d="M331.408135,107.84 C332.765765,112.226627 333.834478,116.697544 334.607404,121.224 C335.183272,124.616 335.519196,128.384 333.57564,131.216 C340.981947,120.072 348.716179,108.592 359.969607,101.4 C355.335154,96.3738651 353.052849,89.6155345 353.691042,82.808 C353.755027,82.136 344.453154,85.648 343.741316,86.048 C340.478062,87.864 337.486746,90.12 334.303473,92.064 C332.65585,93.064 325.793419,95.432 325.729433,96.864 C325.729433,97.784 328.45681,100.6 328.968693,101.568 C329.973024,103.579147 330.789635,105.678718 331.408135,107.84 L331.408135,107.84 Z" id="Path" fill="#FBBEBE"></path>
                <path d="M365.824269,528.144 C362.098606,525.519296 357.23363,525.150653 353.155165,527.184 C349.531993,529.056 347.09255,532.6 343.797303,535 C338.134598,539.112 330.656307,539.44 324.025823,541.664 C322.266225,542.256 320.394653,543.136 319.650823,544.864 C319.146946,546.331772 319.265434,547.941844 319.978748,549.32 C321.087152,551.791112 323.029481,553.793358 325.465494,554.976 C328.440814,556.4 331.864031,556.464 335.159278,556.504 L363.792733,556.84 C372.590722,556.944 381.444698,557.048 390.1867,558.144 C392.226234,558.4 394.433729,558.68 396.233318,557.68 C399.160649,556.08 399.496572,552.032 399.272623,548.696 C398.683126,540.243732 396.794718,531.932837 393.673903,524.056 C393.329982,523.184 392.874086,522.192 391.906307,522.032 C391.219567,522.000878 390.544355,522.216541 390.002742,522.64 C381.924589,527.44 371.694927,530.152 363.10489,526.312" id="Path" fill="#192534"></path>
                <path d="M380.156993,345.424 C376.957724,364.008 379.045247,383.104 382.644424,401.608 C383.307076,405.292326 384.180309,408.935634 385.259826,412.52 C386.547532,416.6 388.283135,420.52 389.490859,424.624 C392.562157,435.024 392.130256,446.144 391.67436,457 L389.578839,506.4 C389.402879,510.544 389.242916,514.784 390.490631,518.736 C390.994516,520.336 391.610375,522.336 390.338665,523.416 C389.841083,523.773349 389.259883,523.996515 388.651051,524.064 C382.927994,525.118782 377.016677,524.231882 371.85489,521.544 L371.28702,471.64 C371.11106,456.256 370.927102,440.808 368.559644,425.616 C366.680073,413.536 363.416819,401.616 363.200868,389.392 C362.97692,376.592 366.112203,363.96 369.311472,351.552 C369.999314,348.896 372.51074,346.952 374.574269,345.152 C375.294416,344.441704 376.171004,343.910151 377.133684,343.6 C378.093464,343.336 379.565128,344.616 380.156993,345.424 Z" id="Path" fill="#3F3D56"></path>
                <path d="M380.156993,345.424 C376.957724,364.008 379.045247,383.104 382.644424,401.608 C383.307076,405.292326 384.180309,408.935634 385.259826,412.52 C386.547532,416.6 388.283135,420.52 389.490859,424.624 C392.562157,435.024 392.130256,446.144 391.67436,457 L389.578839,506.4 C389.402879,510.544 389.242916,514.784 390.490631,518.736 C390.994516,520.336 391.610375,522.336 390.338665,523.416 C389.841083,523.773349 389.259883,523.996515 388.651051,524.064 C382.927994,525.118782 377.016677,524.231882 371.85489,521.544 L371.28702,471.64 C371.11106,456.256 370.927102,440.808 368.559644,425.616 C366.680073,413.536 363.416819,401.616 363.200868,389.392 C362.97692,376.592 366.112203,363.96 369.311472,351.552 C369.999314,348.896 372.51074,346.952 374.574269,345.152 C375.294416,344.441704 376.171004,343.910151 377.133684,343.6 C378.093464,343.336 379.565128,344.616 380.156993,345.424 Z" id="Path" fill="#000000" opacity="0.1"></path>
                <path d="M320.09872,287.344 C318.914991,292.216 321.426417,297.264 321.146481,302.272 C320.986517,305.304 319.79479,308.328 320.346664,311.304 C320.898537,314.28 323.026051,316.52 324.161792,319.248 C324.990064,321.526259 325.428113,323.927964 325.457495,326.352 C325.78542,332.336 325.521481,338.352 325.297532,344.312 C324.921618,354.312 324.641682,364.368 325.96138,374.28 C327.110554,382.867249 329.444233,391.253722 332.895795,399.2 C333.941959,401.361619 334.806089,403.606731 335.479205,405.912 C335.921146,408.059965 336.215104,410.23575 336.359004,412.424 C337.11921,419.540804 339.028929,426.487072 342.013711,432.992 C344.053245,437.448 347.612431,440.992 348.740174,445.72 C349.811929,450.248 349.092093,455.024 349.867916,459.608 C350.435786,463.008 351.81947,466.224 352.587294,469.584 C353.587066,473.928 353.563071,478.432 354.066956,482.864 C355.506627,495.664 361.321298,508.464 357.850091,520.88 C357.15425,523.376 356.074497,525.912 356.562386,528.456 C356.802331,529.704 357.410192,530.936 357.138254,532.176 C356.914305,533.232 356.098492,534.048 355.682587,535.048 C354.88277,536.92 355.730576,539.144 357.15425,540.592 C358.672862,541.941822 360.438243,542.984994 362.353062,543.664 C368.247715,546.184 374.35032,548.744 380.748857,548.688 C381.525566,548.729396 382.301078,548.586867 383.01234,548.272 C384.164077,547.672 384.731947,546.368 385.219835,545.168 L388.499086,537.056 C388.898995,536.072 389.298903,534.92 388.747029,534.008 C388.362706,533.507889 387.897782,533.075303 387.371344,532.728 C384.723949,530.496 385.323812,526.328 386.027651,522.976 C387.825563,514.36671 388.821599,505.609233 389.002971,496.816 C389.35489,479.28 386.46755,461.848 383.588208,444.544 C382.588437,438.536 381.580667,432.488 379.589122,426.728 C377.597578,420.968 374.662249,415.424 375.142139,409.44 C375.654022,402.976 373.974406,396.2 375.142139,389.824 C376.309872,383.448 378.15745,377.208 379.349177,370.84 C380.892824,362.576 381.276737,354.152 381.748629,345.768 C381.948583,342.344 382.204525,338.808 383.804159,335.768 C384.739945,333.992 386.099634,332.472 387.147395,330.752 C389.850777,326.28 390.282678,320.736 392.866088,316.192 C394.089808,314.04 395.777422,312.144 396.673218,309.84 C397.302201,308.022631 397.631754,306.115106 397.648995,304.192 C397.902494,299.363903 397.634336,294.522541 396.849177,289.752 C383.233842,282.822217 368.134257,279.318312 352.859232,279.544 C347.012569,279.64 341.10192,280.232 335.615174,282.256 C330.384369,284.2 325.617459,286.928 320.09872,287.344 Z" id="Path" fill="#3F3D56"></path>
                <path d="M352.891225,540.8 C350.539762,543.728 350.699726,547.912 349.196069,551.36 C347.372486,555.544 343.309415,558.224 339.454296,560.664 L315.459781,575.864 C314.14808,576.664 312.740402,577.648 312.260512,579.136 C312.032493,580.085844 312.074043,581.080492 312.380484,582.008 C313.544299,586.087179 316.702423,589.294251 320.762569,590.52 C322.88609,591.025977 325.067118,591.24924 327.249086,591.184 L338.03862,591.328 C341.325526,591.456537 344.617449,591.328147 347.884369,590.944 C350.875686,590.512 353.78702,589.656 356.76234,589.112 C362.177102,588.128 367.74383,588.216 373.16659,587.264 C376.487161,586.611013 379.766685,585.764232 382.988346,584.728 C386.90745,583.552 390.898537,582.328 394.25777,580 C395.182558,579.437066 395.932926,578.628366 396.425274,577.664 C396.993144,576.344 396.681216,574.832 396.361289,573.432 L391.210466,550.792 C390.919806,548.906665 390.232859,547.10438 389.194927,545.504 C388.051188,543.984 385.995658,542.976 384.212066,543.624 C383.476079,543.959328 382.781019,544.37807 382.140539,544.872 C379.501143,546.608 376.117916,546.896 372.998629,546.352 C370.98309,545.992 368.319698,545.44 366.696069,544.104 C365.464351,543.088 365.096435,541.512 364.048675,540.36 C362.563124,538.833995 360.499754,538.010495 358.371974,538.094406 C356.244193,538.178316 354.252048,539.161747 352.891225,540.8 Z" id="Path" fill="#192534"></path>
                <ellipse id="Oval" fill="#FBBEBE" cx="337.334781" cy="75.816" rx="28.8973949" ry="28.904"></ellipse>
                <path d="M315.043876,77.512 C317.811243,75.96 317.811243,71.488 320.642596,70 C323.473949,68.512 326.689214,71.096 328.504799,73.704 C331.151151,77.5234709 332.9884,81.8440336 333.903565,86.4 C334.159506,87.696 334.399452,89.112 335.375229,90.016 C336.351005,90.92 337.630713,91.032 338.878428,91.16 C342.530926,91.5226667 346.188757,91.8533333 349.85192,92.152 C353.930987,92.48 358.234004,92.744 361.937157,90.992 C363.398608,90.3384433 364.654082,89.2984298 365.568327,87.984 C366.301218,86.7218684 366.825198,85.3494821 367.119973,83.92 C369.031536,76.648 370.959095,69.288 371.119059,61.768 C371.183044,58.664 370.911106,55.448 369.415448,52.728 C368.543647,51.128 367.26394,49.736 366.904022,47.976 C366.544104,46.216 367.703839,43.976 369.527422,44.168 C367.879055,44.2358027 366.237159,43.9237712 364.728519,43.256 C363.28085,42.456 362.209095,40.736 362.720978,39.168 C358.657907,39.688 355.698583,35.672 352.531307,33.072 C352.016295,32.5612824 351.320972,32.273893 350.59575,32.272 C350.039268,32.4108423 349.50201,32.6177342 348.996115,32.888 C347.396481,33.448 345.724863,32.384 344.085238,31.92 C339.686243,30.688 334.095521,33.664 330.832267,30.464 C331.144196,32.504 328.640768,33.872 326.577239,33.832 C324.513711,33.792 322.386197,33.032 320.434644,33.72 C321.006991,34.7669279 321.082167,36.0147709 320.639649,37.1228672 C320.197131,38.2309636 319.283129,39.0835977 318.147166,39.448 L319.114945,41.56 C317.080916,41.9667164 315.453536,43.4921529 314.915905,45.496 C313.852148,49.696 314.116088,55.664 314.372029,59.984 C314.5,61.88 316.347578,76.8 315.043876,77.512 Z" id="Path" fill="#192534"></path>
                <path d="M339.702239,113.072 C325.185558,129.4 321.490402,152.384 318.39511,174.024 L313.836152,205.976 C312.652422,214.264 311.4367,222.552 310.404936,230.864 C309.685101,236.552 309.013254,242.328 309.797075,248.008 C310.412934,252.488 311.908592,256.808 313.156307,261.12 C316.402885,272.429862 318.018817,284.145351 317.95521,295.912 C318.922989,293.064 322.274223,291.912 325.21755,291.272 C349.914221,285.912375 375.680625,288.664674 398.688757,299.12 C402.727834,287.8 401.968007,275.416 403.09575,263.448 C404.695384,246.384 410.206124,229.848 411.837751,212.816 C412.437614,206.472 412.509598,200.096 412.573583,193.72 C412.621572,189.04 412.669561,184.312 411.693784,179.728 C410.606033,174.656 408.310558,169.928 405.935101,165.328 C399.368536,152.540948 392.072845,140.141848 384.084095,128.192 C380.063681,122.176 375.869973,116.28 371.502971,110.504 C369.290143,107.576 367.031993,104.68 364.728519,101.816 C362.497029,99.04 361.52925,96.632 357.98606,98.296 C351.29159,101.432 344.573126,107.592 339.702239,113.072 Z" id="Path" fill="#2848FC"></path>
                <path d="M348.020338,248.976 C344.478954,249.104107 340.932961,248.991849 337.406764,248.64 C334.791362,248.384 332.119973,248 329.568556,248.64 C328.459154,248.919436 327.420914,249.429135 326.521252,250.136 C325.840045,250.742633 325.582529,251.69511 325.865222,252.562467 C326.147916,253.429823 326.917183,254.047493 327.824954,254.136 L330.560329,254.376 C332.295932,254.528 334.103519,254.704 335.45521,255.976 C336.010285,256.475818 336.3631,257.161688 336.446984,257.904 C336.614945,259.768 334.999314,260.784 333.551645,261.56 C331.493567,262.526597 329.590541,263.793773 327.904936,265.32 C326.584994,266.595472 325.755462,268.294562 325.561472,270.12 C325.548964,270.451171 325.713972,270.763879 325.994383,270.940413 C326.274794,271.116948 326.628044,271.130512 326.921161,270.976 C330.12043,269.376 332.207952,264.632 335.71915,265.424 C332.525373,266.435538 329.789892,268.540017 327.992916,271.368 C327.080263,272.758193 327.243659,274.593727 328.387514,275.800769 C329.531369,277.007812 331.355116,277.269194 332.791819,276.432 C333.311663,276.127572 333.813699,275.793695 334.295475,275.432 C336.674387,273.50582 338.804881,271.291535 340.638026,268.84 C338.078611,274.24 335.487203,280.56 338.43053,285.928 C338.730295,286.531285 339.357269,286.901284 340.030165,286.872 C340.957952,286.776 341.22989,285.904 341.381856,285.136 C341.861746,282.664 341.981718,280.056 343.197441,277.856 C346.012797,272.752 352.95521,272.256 358.242002,269.768 C364.584552,266.824 368.927559,260.488 370.679159,253.72 C371.292042,251.74622 371.399301,249.650052 370.991088,247.624 C369.815356,243.072 364.20064,242.024 360.593464,244.224 C356.170475,247.032 353.603062,248.8 348.020338,248.976 Z" id="Path" fill="#FBBEBE"></path>
                <path d="M342.405622,159.432 C348.004342,168.08 357.722121,172.952 366.056216,179.024 C368.089545,180.348541 369.862525,182.035156 371.28702,184 C373.390539,187.248 373.686472,191.376 373.25457,195.2 C372.710695,200.248 371.087066,205.104 369.479433,209.92 L365.984232,220.36 C363.768739,226.984 361.481261,233.744 357.266225,239.312 C356.186472,240.728 354.930759,242.24 354.978748,244.016 C355.071902,245.042004 355.42418,246.027507 356.002514,246.88 C358.72805,251.328216 363.14081,254.480496 368.231718,255.616 C369.740665,256.000001 371.321721,256.000001 372.830667,255.616 C374.990174,254.976 376.613803,253.216 378.117459,251.552 C385.315814,243.608 392.514168,235.552 397.71298,226.232 C402.791819,217.136 405.831124,207.032 408.630484,197.024 C409.783309,193.339697 410.586673,189.554987 411.029936,185.72 C411.621801,178.52 409.734232,171.32 406.646938,164.816 C403.559644,158.312 399.312614,152.424 394.937614,146.704 C390.808526,141.085579 386.220499,135.819515 381.22075,130.96 C372.518739,122.824 361.873172,118.04 350.227834,122.656 C342.005713,125.92 338.926417,132.728 338.190585,141.448 C337.567626,147.744014 339.050032,154.068893 342.405622,159.432 Z" id="Path" fill="#000000" opacity="0.1"></path>
                <path d="M345.316956,157.24 C350.915676,165.888 360.641453,170.76 368.96755,176.832 C370.994185,178.169489 372.758881,179.866803 374.17436,181.84 C376.277879,185.088 376.573812,189.208 376.14191,193.04 C375.590037,198.088 373.974406,202.944 372.358775,207.76 L368.863574,218.16 C366.64808,224.784 364.360603,231.536 360.145567,237.112 C359.073812,238.528 357.818099,240.032 357.866088,241.816 C357.954236,242.840631 358.307014,243.824778 358.889854,244.672 C361.611269,249.122138 366.021356,252.277457 371.11106,253.416 C372.622715,253.8 374.206353,253.8 375.718007,253.416 C377.877514,252.784 379.493144,251.016 381.004799,249.36 C388.203154,241.408 395.401508,233.36 400.60032,224.04 C405.679159,214.944 408.718464,204.84 411.517824,194.824 C412.673771,191.143243 413.477203,187.360889 413.917276,183.528 C414.509141,176.328 412.621572,169.128 409.542276,162.616 C406.46298,156.104 402.207952,150.224 397.832952,144.504 C393.689612,138.914925 389.090967,133.678389 384.084095,128.848 C375.390082,120.72 364.744516,115.928 353.099177,120.552 C344.869059,123.816 341.797761,130.616 341.053931,139.344 C340.466853,145.616058 341.965333,151.906613 345.316956,157.24 L345.316956,157.24 Z" id="Path" fill="#2848FC"></path>
                <path d="M522.172655,444.192 C522.178553,446.278104 521.964077,448.359001 521.532678,450.4 C521.452697,450.784 521.364717,451.2 521.276737,451.528 C519.005256,460.64 512.59872,467.304 504.952468,467.728 C504.696527,467.728 504.440585,467.728 504.152651,467.728 C496.066499,467.728 489.228062,460.752 486.972578,451.144 C486.908592,450.888 486.852605,450.632 486.796618,450.344 C486.365219,448.303001 486.150743,446.222104 486.156641,444.136 C486.156641,431.12 494.210923,420.576 504.152651,420.576 C514.094378,420.576 522.172655,431.2 522.172655,444.192 Z" id="Path" fill="#3F3D56"></path>
                <path d="M522.172655,444.192 C522.178553,446.278104 521.964077,448.359001 521.532678,450.4 C521.452697,450.784 521.364717,451.2 521.276737,451.528 C521.004799,451.528 520.740859,451.528 520.47692,451.528 C518.49627,451.421324 516.527568,451.153776 514.590265,450.728 C512.873788,451.258652 511.119935,451.659778 509.343464,451.928 C507.981404,452.133089 506.608878,452.261292 505.232404,452.312 L503.840722,452.312 C502.192973,452.312 500.547041,452.20259 498.913848,451.984 C496.272875,451.631223 493.679022,450.987307 491.179616,450.064 C489.811318,450.519639 488.417184,450.89363 487.00457,451.184 C486.940585,450.928 486.884598,450.672 486.828611,450.384 C486.397212,448.343001 486.182736,446.262104 486.188634,444.176 C486.188634,431.16 494.242916,420.616 504.184644,420.616 C514.126371,420.616 522.172655,431.2 522.172655,444.192 Z" id="Path" fill="#000000" opacity="0.1"></path>
                <path d="M560.564225,400.304 C560.571354,394.576268 559.22866,388.927441 556.644653,383.816 L535.48149,390.4 L554.061243,379.472 C547.74816,370.353845 537.640375,364.592621 526.579525,363.808 C525.710398,362.488885 524.756612,361.227568 523.724177,360.032 L493.331124,369.496 L518.261426,354.832 C508.576341,347.397224 495.821107,345.286088 484.257877,349.204027 C472.694648,353.121967 463.848207,362.552343 460.674589,374.344 L486.708638,404.32 L458.467093,383.888 C443.681017,394.377594 438.804722,414.115946 447.004447,430.286703 C455.204172,446.457459 474.006824,454.18341 491.203611,448.448 C498.729803,451.21524 506.954623,451.442823 514.622258,449.096 C525.449312,451.479424 536.77298,448.828029 545.417379,441.885435 C554.061778,434.94284 559.095986,424.4567 559.10809,413.368 C559.10809,412.568 559.10809,411.768 559.028108,410.968 C560.064515,407.508874 560.582033,403.915073 560.564225,400.304 L560.564225,400.304 Z" id="Path" fill="#2848FC"></path>
                <path d="M559.931901,407.088 C548.755446,404.969112 537.294489,404.822907 526.067642,406.656 C513.358547,408.76 500.369516,413.384 487.940356,410.008 C480.646024,408.024 474.343464,403.432 467.217093,400.88 C460.341341,398.480642 452.934651,398.037523 445.821984,399.6 C440.286461,412.845794 443.002538,428.10536 452.768362,438.626395 C462.534185,449.14743 477.546972,452.98774 491.16362,448.448 C498.689812,451.21524 506.914632,451.442823 514.582267,449.096 C525.409321,451.479424 536.732989,448.828029 545.377388,441.885435 C554.021787,434.94284 559.055996,424.4567 559.068099,413.368 C559.068099,412.568 559.068099,411.768 558.988117,410.968 C559.373938,409.693046 559.689013,408.397737 559.931901,407.088 Z" id="Path" fill="#000000" opacity="0.1"></path>
            </g>
        </g>
    </g>
</svg>