<svg width="1152" height="700" viewBox="0 0 1152 700" fill="none" xmlns="http://www.w3.org/2000/svg">
<path d="M629.422 323.158V315.273C629.422 314.488 630.043 313.845 630.827 313.816L673.455 312.282C674.279 312.252 674.964 312.913 674.964 313.738V323.158C674.964 323.963 674.312 324.615 673.507 324.615H630.879C630.074 324.615 629.422 323.963 629.422 323.158Z" fill="#FF7CA4"/>
<path d="M631.242 315.142L675.327 313.685V318.421V319.605V320.789V323.157H631.242V320.88V318.603V317.328V315.142Z" fill="#E6E7F3"/>
<path d="M632.153 316.053L674.963 314.595M631.242 317.328V315.142L675.327 313.685V318.421M631.242 317.328L672.048 316.053M631.242 317.328V318.603M631.242 318.603L668.951 317.328M631.242 318.603V320.88V323.157H675.327V320.789M675.327 318.421L632.882 319.696M675.327 318.421V319.605M675.327 320.789L635.614 321.518M675.327 320.789V319.605M675.327 319.605L657.475 319.696" stroke="black" stroke-opacity="0.19" stroke-width="0.36434"/>
<path d="M674.952 311.56L674.677 303.68C674.649 302.896 674.006 302.275 673.222 302.274L630.566 302.228C629.741 302.227 629.079 302.911 629.108 303.736L629.437 313.15C629.465 313.954 630.14 314.583 630.944 314.555L673.546 313.068C674.351 313.039 674.98 312.365 674.952 311.56Z" fill="#7C95EE"/>
<path d="M672.852 303.614L628.743 303.696L628.908 308.429L628.949 309.613L628.99 310.796L629.073 313.163L673.131 311.624L673.052 309.349L672.972 307.073L672.928 305.798L672.852 303.614Z" fill="#E6E7F3"/>
<path d="M671.973 304.556L629.138 304.593M672.928 305.798L672.852 303.614L628.743 303.696L628.908 308.429M672.928 305.798L632.102 305.948M672.928 305.798L672.972 307.073M672.972 307.073L635.242 307.114M672.972 307.073L673.052 309.349L673.131 311.624L629.073 313.163L628.99 310.796M628.908 308.429L671.372 308.222M628.908 308.429L628.949 309.613M628.99 310.796L668.705 310.138M628.99 310.796L628.949 309.613M628.949 309.613L646.794 309.081" stroke="black" stroke-opacity="0.19" stroke-width="0.36434"/>
<path d="M633.793 301.57V293.685C633.793 292.901 634.414 292.257 635.198 292.229L677.826 290.694C678.651 290.664 679.335 291.325 679.335 292.15V301.57C679.335 302.375 678.683 303.027 677.878 303.027H635.25C634.445 303.027 633.793 302.375 633.793 301.57Z" fill="#4C4AA7"/>
<path d="M635.613 293.554L679.698 292.097V296.833V298.017V299.201V301.57H635.613V299.292V297.015V295.74V293.554Z" fill="#E6E7F3"/>
<path d="M636.524 294.465L679.334 293.008M635.613 295.74V293.554L679.698 292.097V296.833M635.613 295.74L676.419 294.465M635.613 295.74V297.015M635.613 297.015L673.322 295.74M635.613 297.015V299.292V301.57H679.698V299.201M679.698 296.833L637.253 298.108M679.698 296.833V298.017M679.698 299.201L639.985 299.93M679.698 299.201V298.017M679.698 298.017L661.846 298.108" stroke="black" stroke-opacity="0.19" stroke-width="0.36434"/>
<path fill-rule="evenodd" clip-rule="evenodd" d="M396.142 198.402C390.213 208.285 395.547 217.866 399.633 223.916L397.617 238.029L395.717 249.746H416.302V239.929V230.324C425.633 231.488 428.966 226.88 428.966 226.88C428.966 226.88 432.477 222.94 431.276 212.534C430.939 209.61 430.23 206.175 428.966 202.173C421.793 179.459 403.743 185.734 396.142 198.402ZM490.119 581.941V563.61V552.054L505.261 550.46L499.682 581.941H490.119ZM545.111 593.497L541.525 573.572L538.735 564.008L553.48 560.82L556.269 591.903L545.111 593.497ZM548.196 310.963C548.196 310.963 568.829 305.617 574.69 309.369C576.094 310.268 578.543 311.637 581.209 313.128C586.849 316.281 593.463 319.979 593.226 320.925C592.758 322.798 587.685 320.356 582.85 318.028C579.452 316.393 576.172 314.814 574.69 314.828C571.097 314.862 562.922 318.136 563.737 318.136C564.933 318.136 580.474 321.915 575.867 322.68C571.26 323.446 560.252 322.236 552.579 319.73L548.196 320.527V310.963Z" fill="#F4AFAA"/>
<path fill-rule="evenodd" clip-rule="evenodd" d="M446.816 373.128C446.898 372.952 446.958 372.772 446.997 372.587C446.997 372.587 442.692 363.454 442.692 342.012C442.692 320.569 437.908 296.744 437.908 296.744C437.908 296.744 457.36 315.543 469.717 319.034C482.074 322.526 551.509 320.569 551.509 320.569C553.9 320.569 557.701 313.166 549.914 309.451L478.565 296.744C478.565 296.744 427.067 237.632 404.347 235.646C398.776 235.647 372.545 240.342 368.889 373.128H368.793C368.793 373.128 360.823 420.549 401.469 438.88C429.725 451.622 473.578 446.649 497.689 442.433V448.045L484.539 566H507.253L521.201 518.579L525.128 503.752C525.25 504.732 525.371 505.711 525.493 506.69C528.151 528.094 530.81 549.497 535.945 574.5L556.667 570.384C556.667 570.384 564.238 452.429 556.667 413.376C550.641 382.293 452.078 373.128 452.078 373.128H446.816ZM482.365 592.363C475.206 592.363 485.862 574.369 485.862 574.369C492.78 580.627 496.652 580.907 503.552 579.431C503.552 579.431 512.346 587.605 523.525 594.692C527.473 597.195 523.525 601.987 523.525 601.987C523.525 601.987 485.862 592.363 482.365 592.363ZM541.922 605.85C535.081 603.743 541.922 588.715 541.922 588.715C549.24 592.885 553.217 592.4 560.253 590.309C560.253 590.309 569.212 597.88 581.669 600.669C584.458 601.294 581.669 607.045 581.669 607.045C581.669 607.045 545.804 607.045 541.922 605.85Z" fill="#2329B9"/>
<path d="M479.652 588.715C491.342 591.106 509.141 596.685 522.291 599.076" stroke="white" stroke-width="0.796994"/>
<path d="M480.449 586.324C492.138 588.715 494.795 589.911 501.57 591.505" stroke="white" stroke-width="0.796994"/>
<path d="M539.828 603.857C551.385 605.85 575.215 603.698 581.272 606.248" stroke="white" stroke-width="0.796994"/>
<path d="M539.43 601.467C546.603 602.264 553.377 602.264 559.355 602.264" stroke="white" stroke-width="0.796994"/>
<path d="M517.081 356.971L512.547 340.972C511.196 336.204 514.424 331.389 519.359 330.94C553.203 327.863 668.537 318.591 701.235 331.833C749.454 351.36 672.942 607.843 672.942 607.843H605.995L582.18 362.767H524.749C521.184 362.767 518.053 360.4 517.081 356.971Z" fill="#DFEEFF"/>
<path d="M669.764 354.526L636.66 325.707C636.66 325.707 662.164 320.925 701.232 331.833C751.338 345.822 672.939 607.842 672.939 607.842H636.66L675.713 362.767L671.108 356.037C670.726 355.478 670.274 354.971 669.764 354.526Z" fill="#040404" fill-opacity="0.06"/>
<path fill-rule="evenodd" clip-rule="evenodd" d="M368.792 373.128C368.792 373.128 360.06 422.343 401.469 438.88C435.05 452.291 475.095 447.287 497.689 442.582V448.045L484.538 566H507.253L521.2 518.579L524.424 508.074C527.52 529.953 531.327 553.439 535.944 574.501L556.666 570.384C556.666 570.384 564.238 452.429 556.666 413.376C550.64 382.293 451.36 373.128 451.36 373.128C440.937 373.128 431.122 374.379 421.625 375.59C403.525 377.897 386.581 380.057 368.792 373.128Z" fill="#F49A2D"/>
<path d="M484.539 566.001L497.689 448.045V442.068L515.519 438.083L521.201 472.752L525.481 504.632L521.201 518.579L507.253 566.001H484.539Z" fill="black" fill-opacity="0.1"/>
<path fill-rule="evenodd" clip-rule="evenodd" d="M391.831 188.225C391.88 187.833 391.905 187.435 391.905 187.03C391.905 181.748 387.623 177.466 382.341 177.466C377.059 177.466 372.777 181.748 372.777 187.03C372.777 192.312 377.059 196.594 382.341 196.594C383.573 196.594 384.75 196.361 385.832 195.937C384.882 204.733 393.505 220.941 399.078 228.075C411.432 231.263 411.511 204.564 411.511 204.564C411.511 204.564 415.364 185.987 423.386 191.812C418.709 176.9 401.524 181.587 391.831 188.225Z" fill="#1B1139"/>
<path d="M620.679 323.424L621.132 321.694L637.518 265.294C637.868 264.087 636.963 262.882 635.707 262.882C634.868 262.882 634.131 263.435 633.896 264.24L617.403 320.841C617.018 322.162 615.829 323.087 614.453 323.135L547.278 325.47C546.908 325.483 546.559 325.642 546.307 325.912C545.459 326.821 546.134 328.301 547.375 328.257L617.706 325.801C619.113 325.752 620.321 324.786 620.679 323.424Z" fill="#262626"/>
<path fill-rule="evenodd" clip-rule="evenodd" d="M339.213 457.263L349.429 325.56C349.578 323.645 350.615 321.909 352.231 320.87C356.127 318.366 361.315 320.896 361.996 325.477C367.478 362.362 389.265 418.075 469.55 429.321C473.182 429.83 475.989 432.896 475.989 436.564V457.978C475.989 459.301 475.627 460.594 474.813 461.637C470.661 466.957 454.953 483.615 419.004 486.979V594.294H442.116C446.518 594.294 450.086 597.862 450.086 602.264V603.858C450.086 608.26 446.518 611.828 442.116 611.828H380.748C376.346 611.828 372.778 608.26 372.778 603.858V602.264C372.778 597.862 376.346 594.294 380.748 594.294H405.455V487.554C367.444 487.124 346.716 468.381 340.796 462.058C339.587 460.768 339.076 459.026 339.213 457.263Z" fill="#C7E1FF"/>
<path d="M405.535 491.481L409.333 529.086L412.708 593.497H405.535V491.481Z" fill="#070707" fill-opacity="0.08"/>
<path d="M349.13 329.408L339.212 457.263C339.076 459.026 339.587 460.768 340.795 462.058C346.983 468.666 369.348 488.844 410.714 487.497C442.775 486.453 449.84 478.04 450.848 472.26C451.414 469.012 447.914 467.321 444.709 468.098L411.547 476.137C410.993 476.271 410.392 476.34 409.823 476.336C327.39 475.794 360.543 399.735 355.815 329.419C355.757 328.569 355.373 327.778 354.747 327.201C352.687 325.304 349.347 326.617 349.13 329.408Z" fill="#040404" fill-opacity="0.06"/>
<path d="M682.089 235.647H613.149H604.781H585.653C569.807 235.647 556.961 222.801 556.961 206.955V204.166C556.961 186.779 571.056 172.685 588.442 172.685H682.089C699.476 172.685 713.57 186.779 713.57 204.166C713.57 221.552 699.476 235.647 682.089 235.647Z" fill="#F9F9F9"/>
<rect x="564.93" y="191.016" width="26.3008" height="26.3008" rx="13.1504" fill="#D8D2D2" fill-opacity="0.3"/>
<rect x="574.492" y="195.001" width="6.37595" height="6.37595" rx="3.18797" fill="#C4C4C4"/>
<rect x="572.102" y="202.174" width="11.1579" height="11.1579" rx="5.57895" fill="#D3D3D3"/>
<rect x="603.188" y="195" width="41.4437" height="17.7616" rx="8.88078" fill="#F2F2F2"/>
<circle cx="614.435" cy="203.881" r="2.36821" fill="#C4C4C4"/>
<circle cx="623.911" cy="203.881" r="2.36821" fill="#C4C4C4"/>
<circle cx="633.384" cy="203.881" r="2.36821" fill="#C4C4C4"/>
<path d="M595.1 243.648L589.787 236.701C588.584 235.128 589.705 232.857 591.686 232.857H601.29C603.162 232.857 604.308 234.912 603.324 236.505L599.033 243.452C598.153 244.878 596.117 244.979 595.1 243.648Z" fill="#F9F9F9"/>
<path d="M770.558 151.962H701.618H693.249H674.121C658.275 151.962 645.43 139.117 645.43 123.271V120.481C645.43 103.095 659.524 89 676.911 89H770.558C787.944 89 802.039 103.095 802.039 120.481C802.039 137.868 787.944 151.962 770.558 151.962Z" fill="#F9F9F9"/>
<rect x="653.398" y="107.331" width="26.3008" height="26.3008" rx="13.1504" fill="#D8D2D2" fill-opacity="0.3"/>
<rect x="662.961" y="111.316" width="6.37595" height="6.37595" rx="3.18797" fill="#C4C4C4"/>
<rect x="660.57" y="118.489" width="11.1579" height="11.1579" rx="5.57895" fill="#D3D3D3"/>
<path d="M809.244 121.793L802.297 127.106C800.723 128.309 798.453 127.187 798.453 125.207V115.603C798.453 113.73 800.508 112.585 802.101 113.568L809.048 117.86C810.473 118.74 810.575 120.775 809.244 121.793Z" fill="#F9F9F9"/>
<rect x="688.469" y="114.504" width="81.2933" height="4.78196" rx="2.39098" fill="#C4C4C4" fill-opacity="0.42"/>
<rect x="688.469" y="123.271" width="51.8046" height="4.78196" rx="2.39098" fill="#C4C4C4" fill-opacity="0.42"/>
<path d="M645.543 575.614C645.543 575.614 641.705 555.268 641.487 545.026C641.027 523.4 609.417 515.949 616.596 495.544C619.489 487.324 625.775 485.283 629.792 477.55C646.391 445.589 593.878 419.023 610.899 387.284C617.828 374.361 622.037 359.42 636.689 359.994C654.192 360.679 634.168 400.562 651.684 400.584C666.127 400.602 672.649 362.297 678.974 373.189L695.168 401.078C701.492 411.97 677.426 429.722 678.974 449.661C680.233 465.882 695.806 471.789 695.168 488.047C694.814 497.048 687.844 501.288 688.87 510.238C689.605 516.656 693.88 519.203 695.168 525.533C699.652 547.583 658.438 575.614 658.438 575.614H651.684H645.543Z" fill="#4671A4"/>
<path d="M643.045 538.449C648.417 554.787 663.238 577.586 663.238 577.586H658.554H653.87C653.87 577.586 594.159 566.443 609.945 555.519C613.843 552.822 617.258 553.593 621.186 550.94C640.243 538.069 565.386 516.579 584.963 504.516C588.666 502.235 591.763 502.987 595.372 500.561C604.431 494.471 594.662 474.853 605.573 474.538C613.91 474.298 615.597 494.066 623.893 494.928C630.35 495.598 630.123 483.408 636.592 482.865C658.368 481.039 636.219 517.69 643.045 538.449Z" fill="#3581AC"/>
<path d="M684.531 519.223C676.792 542.759 655.441 575.602 655.441 575.602H662.189H668.936C668.936 575.602 754.954 559.55 732.213 543.814C726.598 539.928 721.678 541.038 716.019 537.216C688.568 518.676 796.402 487.718 768.2 470.341C762.867 467.055 758.404 468.138 753.205 464.643C740.156 455.871 754.228 427.61 738.511 427.157C726.501 426.811 727.97 446.908 716.019 448.149C706.718 449.115 703.146 439.934 693.827 439.152C662.458 436.521 694.364 489.319 684.531 519.223Z" fill="#316891"/>
<path d="M651.844 575.598C659.042 564.302 670.018 536.253 656.343 514.421C648.446 504.025 639.009 477.474 664.44 453.243M664.44 453.243C673.436 442.447 679.674 417.316 673.436 407.96M664.44 453.243C666.539 433.75 661.741 415.757 651.544 406.161M664.44 453.243C657.065 446.114 644.951 433.394 636.211 422.654M625.754 406.161C626.586 409.857 630.736 415.926 636.211 422.654M636.211 422.654C639.623 417.856 643.507 404.841 631.752 391.166" stroke="white" stroke-opacity="0.12" stroke-width="1.19956"/>
<path d="M657.84 577.098C654.578 572.618 650.598 567.028 646.36 560.904M611.957 500.926C612.318 506.705 620.096 520.681 629.651 535.774M629.651 535.774C627.651 529.656 625.092 515.38 630.85 507.223M629.651 535.774C634.993 544.214 640.892 553.003 646.36 560.904M646.36 560.904C643.289 557.705 634.509 552.567 623.953 557.605" stroke="white" stroke-opacity="0.12" stroke-width="1.19956"/>
<path d="M662.637 576.198C667.557 569.427 673.535 561.031 679.863 551.907M728.912 467.038C729.52 473.482 718.292 493.447 704.127 515.62M679.863 551.907C684.018 547.209 696.164 539.551 711.519 546.509M679.863 551.907C687.866 540.37 696.43 527.669 704.127 515.62M704.127 515.62C706.691 506.923 710.079 486.471 703.122 474.235" stroke="white" stroke-opacity="0.12" stroke-width="1.19956" stroke-linecap="round"/>
<path d="M692.255 573.499H635.576C635.576 573.499 628.379 607.686 667.065 607.686C697.054 607.686 692.255 573.499 692.255 573.499Z" fill="#C7E1FF"/>
<path d="M670.137 607.087C678.953 598.127 682.081 591.657 679.733 573.799H692.029C694.728 599.589 679.733 607.087 670.137 607.087Z" fill="black" fill-opacity="0.07"/>
<path d="M667.812 282.467C661.811 274.795 653.122 255.488 666.37 239.632C670.963 247.747 677.681 267.675 667.812 282.467Z" fill="#4671A4"/>
<path d="M667.813 282.467C665.807 271.149 662.591 246.722 666.432 239.736C670.995 247.96 677.792 268.056 667.813 282.467Z" fill="#0D0D0D" fill-opacity="0.12"/>
<path d="M666.58 286.926C665.43 278.773 667.229 260.965 683.63 254.957C683.563 262.839 680.058 280.269 666.58 286.926Z" fill="#3675A3"/>
<path d="M666.578 286.926C669.893 277.792 677.864 258.55 683.628 255.059C683.493 263.009 679.975 280.593 666.578 286.926Z" fill="#0D0D0D" fill-opacity="0.12"/>
<path d="M666.881 287.143C667.743 281.031 666.394 267.682 654.099 263.178C654.15 269.087 656.777 282.152 666.881 287.143Z" fill="#3A91C2"/>
<path d="M666.879 287.143C664.394 280.296 658.419 265.871 654.098 263.254C654.199 269.213 656.836 282.396 666.879 287.143Z" fill="#0D0D0D" fill-opacity="0.12"/>
<path d="M673.686 284.084H655.926L659.173 290.478H677.34L680.283 284.084H673.686Z" fill="#C7E1FF"/>
<path d="M671.453 290.478L673.686 284.084H680.283L677.34 290.478H671.453Z" fill="black" fill-opacity="0.07"/>
</svg>
